<?xml version="1.0" encoding="UTF-8" standalone="no"?>
<!--part of the rodentia icon theme by sixsixfive released under CC0 (https://creativecommons.org/publicdomain/zero/1.0/) on openclipart-->
<svg xmlns="http://www.w3.org/2000/svg" xmlns:xlink="http://www.w3.org/1999/xlink" viewBox="0 0 48 48">
 <defs id="0">
  <linearGradient id="2">
   <stop id="A" stop-color="#2e3436"/>
   <stop id="B" offset="1" stop-color="#2e3436" stop-opacity="0"/>
  </linearGradient>
  <linearGradient id="3">
   <stop id="C" stop-color="#eeeeec"/>
   <stop id="D" offset="1" stop-color="#eeeeec" stop-opacity="0"/>
  </linearGradient>
  <linearGradient id="4">
   <stop id="E" stop-color="#fff" stop-opacity="0.8"/>
   <stop id="F" offset="1" stop-color="#fff" stop-opacity="0"/>
  </linearGradient>
  <radialGradient cx="24.377" cy="45.941" r="23.08" id="5" xlink:href="#2" gradientUnits="userSpaceOnUse" gradientTransform="matrix(1,0,0,0.1455399,0,39.255173)"/>
  <linearGradient y1="4.219" x2="0" y2="43.781" id="6" xlink:href="#4" gradientUnits="userSpaceOnUse"/>
  <linearGradient x1="4.094" y1="-58.01" x2="15.298" y2="33.906" id="7" xlink:href="#3" gradientUnits="userSpaceOnUse" gradientTransform="translate(0.7063923,-1.4999995)"/>
 </defs>
 <g id="1">
  <path d="m 47.453955,45.941494 a 23.076923,3.3586134 0 1 1 -46.153847,0 23.076923,3.3586134 0 1 1 46.153847,0 z" transform="translate(-0.37703133,-2.8001078)" id="8" opacity="0.8" fill="url(#5)"/>
  <g transform="translate(-0.70639229,0)" id="9">
   <rect width="42" height="42" x="3.706" y="1.5" id="G" fill="#445800" rx="6"/>
   <path d="M 9,4.09375 C 6.2608771,4.09375 4.09375,6.2608771 4.09375,9 l 0,30 c 0,2.739123 2.1671271,4.90625 4.90625,4.90625 l 30,0 c 2.739123,0 4.90625,-2.167127 4.90625,-4.90625 l 0,-30 C 43.90625,6.2608771 41.739123,4.09375 39,4.09375 l -30,0 z" transform="translate(0.7063923,-1.4999995)" id="H" fill="#8bb300"/>
   <path d="m 20.1875,9.3125 c -0.140663,-0.00164 -0.27553,0.05678 -0.375,0.15625 -0.09947,0.09947 -0.157892,0.2343372 -0.15625,0.375 l 0,7.59375 -7.59375,0 c -0.01853,-9.88e-4 -0.04397,-9.88e-4 -0.0625,0 -0.271359,0.02583 -0.473139,0.2587 -0.46875,0.53125 l 0,9.0625 c -0.0016,0.140662 0.05678,0.27553 0.15625,0.375 0.09947,0.09947 0.234337,0.157892 0.375,0.15625 l 7.59375,0 0,7.59375 c -0.0016,0.140664 0.05678,0.27553 0.15625,0.375 0.09947,0.09947 0.234337,0.157892 0.375,0.15625 l 9.0625,0 c 0.140663,0.0016 0.27553,-0.05678 0.375,-0.15625 0.09947,-0.09947 0.157892,-0.234337 0.15625,-0.375 l 0,-7.59375 7.59375,0 c 0.140664,0.0016 0.27553,-0.05678 0.375,-0.15625 0.09947,-0.09947 0.157892,-0.234337 0.15625,-0.375 l 0,-9.0625 c 0.0016,-0.140662 -0.05678,-0.27553 -0.15625,-0.375 -0.09947,-0.09947 -0.234337,-0.157892 -0.375,-0.15625 l -7.59375,0 0,-7.59375 c 9.87e-4,-0.01853 9.88e-4,-0.043969 0,-0.0625 C 29.755421,9.5098908 29.52255,9.3081112 29.25,9.3125 l -9.0625,0 z" id="I" fill="#638000"/>
   <path d="m 20.8125,10.4375 0,8.15625 -8.15625,0 0,7.8125 8.15625,0 0,8.125 7.8125,0 0,-8.125 8.125,0 0,-7.8125 -8.125,0 0,-8.15625 -7.8125,0 z" id="J" fill="#eeeeec"/>
   <path d="M 9,4.71875 C 6.5943852,4.71875 4.71875,6.5943852 4.71875,9 l 0,30 c 0,2.405615 1.8756352,4.28125 4.28125,4.28125 l 30,0 c 2.405615,0 4.28125,-1.875635 4.28125,-4.28125 l 0,-30 C 43.28125,6.5943852 41.405615,4.71875 39,4.71875 l -30,0 z" transform="translate(0.7063923,-1.4999995)" id="K" opacity="0.8" fill="none" stroke="url(#6)" stroke-linecap="round" stroke-dashoffset="30"/>
   <path d="m 9.7063923,2.5937505 c -2.7391229,0 -4.90625,2.1671271 -4.90625,4.90625 l 0,17.1562505 C 16.88535,19.523108 30.480987,15.086728 44.612642,12.125001 l 0,-4.6250005 c 0,-2.7391229 -2.167127,-4.90625 -4.90625,-4.90625 l -29.9999997,0 z" id="L" opacity="0.6" fill="url(#7)"/>
  </g>
 </g>
</svg>
